<svg width="26" height="26" viewBox="0 0 26 26" fill="none" xmlns="http://www.w3.org/2000/svg">
<path d="M13 7.58337V22.75" stroke="#2B2B2B" stroke-width="2.16667" stroke-linecap="round" stroke-linejoin="round"/>
<path d="M3.25033 19.5C2.96301 19.5 2.68746 19.3859 2.48429 19.1827C2.28113 18.9795 2.16699 18.704 2.16699 18.4167V4.33333C2.16699 4.04602 2.28113 3.77047 2.48429 3.5673C2.68746 3.36414 2.96301 3.25 3.25033 3.25H8.66699C9.81626 3.25 10.9185 3.70655 11.7311 4.5192C12.5438 5.33186 13.0003 6.43406 13.0003 7.58333C13.0003 6.43406 13.4569 5.33186 14.2695 4.5192C15.0822 3.70655 16.1844 3.25 17.3337 3.25H22.7503C23.0376 3.25 23.3132 3.36414 23.5164 3.5673C23.7195 3.77047 23.8337 4.04602 23.8337 4.33333V18.4167C23.8337 18.704 23.7195 18.9795 23.5164 19.1827C23.3132 19.3859 23.0376 19.5 22.7503 19.5H16.2503C15.3884 19.5 14.5617 19.8424 13.9522 20.4519C13.3427 21.0614 13.0003 21.888 13.0003 22.75C13.0003 21.888 12.6579 21.0614 12.0484 20.4519C11.4389 19.8424 10.6123 19.5 9.75032 19.5H3.25033Z" stroke="#2B2B2B" stroke-width="2.16667" stroke-linecap="round" stroke-linejoin="round"/>
</svg>
