<svg width="28" height="28" viewBox="0 0 28 28" fill="none" xmlns="http://www.w3.org/2000/svg">
<g clip-path="url(#clip0_68_31)">
<path d="M0 11.6667H28V15.1667H0V11.6667ZM3.5 23.9167V19.8333H0V23.9167C0 26.1683 1.83167 28 4.08333 28H8.16667V24.5H4.08333C3.76133 24.5 3.5 24.2387 3.5 23.9167ZM24.5 23.9167C24.5 24.2387 24.2387 24.5 23.9167 24.5H19.8333V28H23.9167C26.1683 28 28 26.1683 28 23.9167V19.8333H24.5V23.9167ZM23.9167 0H19.8333V3.5H23.9167C24.2387 3.5 24.5 3.76133 24.5 4.08333V8.16667H28V4.08333C28 1.83167 26.1683 0 23.9167 0ZM3.5 4.08333C3.5 3.76133 3.76133 3.5 4.08333 3.5H8.16667V0H4.08333C1.83167 0 0 1.83167 0 4.08333V8.16667H3.5V4.08333Z" fill="currentColor"/>
</g>
<defs>
<clipPath id="clip0_68_31">
<rect width="28" height="28" fill="white"/>
</clipPath>
</defs>
</svg>
