<svg width="26" height="26" viewBox="0 0 26 26" fill="none" xmlns="http://www.w3.org/2000/svg">
<path d="M16.2508 19.5004H10.834" stroke="currentColor" stroke-width="2.16671" stroke-linecap="round" stroke-linejoin="round"/>
<path d="M19.5008 15.167H10.834" stroke="currentColor" stroke-width="2.16671" stroke-linecap="round" stroke-linejoin="round"/>
<path d="M4.3337 23.8338H21.6674C22.242 23.8338 22.7931 23.6056 23.1995 23.1992C23.6058 22.7929 23.8341 22.2418 23.8341 21.6671V4.33346C23.8341 3.75881 23.6058 3.2077 23.1995 2.80136C22.7931 2.39503 22.242 2.16675 21.6674 2.16675H8.66712C8.09247 2.16675 7.54136 2.39503 7.13503 2.80136C6.72869 3.2077 6.50041 3.75881 6.50041 4.33346V21.6671C6.50041 22.2418 6.27213 22.7929 5.8658 23.1992C5.45946 23.6056 4.90835 23.8338 4.3337 23.8338ZM4.3337 23.8338C3.75905 23.8338 3.20794 23.6056 2.80161 23.1992C2.39527 22.7929 2.16699 22.2418 2.16699 21.6671V11.9169C2.16699 11.3423 2.39527 10.7912 2.80161 10.3848C3.20794 9.97851 3.75905 9.75023 4.3337 9.75023H6.50041" stroke="currentColor" stroke-width="2.16671" stroke-linecap="round" stroke-linejoin="round"/>
<path d="M18.4175 6.50012H11.9173C11.319 6.50012 10.834 6.98516 10.834 7.58348V9.75019C10.834 10.3485 11.319 10.8335 11.9173 10.8335H18.4175C19.0158 10.8335 19.5008 10.3485 19.5008 9.75019V7.58348C19.5008 6.98516 19.0158 6.50012 18.4175 6.50012Z" stroke="currentColor" stroke-width="2.16671" stroke-linecap="round" stroke-linejoin="round"/>
</svg>
