<svg width="24" height="24" viewBox="0 0 24 24" fill="none" xmlns="http://www.w3.org/2000/svg">
<path d="M22.816 11.0319C22.746 10.3579 22.6 9.37995 22.394 8.20195C22.314 7.74695 22.024 7.38595 21.661 7.14995C21.661 7.14995 19.557 5.70695 16.248 4.36195C13.966 3.43395 11.798 3.03495 11.707 3.01795C11.591 2.99695 11.472 2.99695 11.355 3.01795C11.264 3.03395 9.096 3.43395 6.814 4.36195C3.505 5.70795 1.503 7.09795 1.42 7.15695C1.157 7.34195 1 7.64195 1 7.96295C1 8.28395 1.157 8.58495 1.42 8.76895C1.504 8.82695 3.505 10.2169 6.814 11.5629C9.096 12.4909 11.264 12.8899 11.355 12.9069C11.413 12.9179 11.472 12.9229 11.531 12.9229C11.59 12.9229 11.649 12.9179 11.707 12.9069C11.798 12.8909 13.966 12.4909 16.248 11.5629C17.62 11.0049 18.766 10.4399 19.645 9.96495C19.731 10.5169 19.795 10.9889 19.832 11.3429C20.234 15.2069 19.821 17.6869 19.817 17.7109C19.675 18.5259 20.22 19.3019 21.035 19.4449C21.123 19.4599 21.21 19.4679 21.297 19.4679C22.011 19.4679 22.644 18.9549 22.773 18.2269C22.793 18.1119 23.264 15.3489 22.816 11.0319Z" fill="#2B2B2B"/>
<path d="M16.537 13.6739C14.247 14.6049 12.1 14.9949 12.01 15.0109C11.855 15.0389 11.692 15.0539 11.531 15.0539C11.37 15.0539 11.207 15.0389 11.047 15.0099C10.962 14.9949 8.81495 14.6039 6.52495 13.6739C5.72995 13.3509 5.01095 13.0239 4.37695 12.7129C4.37695 12.7299 4.37695 12.7469 4.37695 12.7629C4.37695 16.4799 5.01795 18.8169 5.04595 18.9149C5.08995 19.0719 5.17495 19.2139 5.29295 19.3259C5.47195 19.4969 7.17395 20.9959 11.536 20.9959C15.979 20.9959 17.622 19.4839 17.795 19.3109C17.905 19.2009 17.985 19.0649 18.027 18.9149C18.054 18.8179 18.686 16.5089 18.686 12.7629C18.686 12.7469 18.686 12.7299 18.686 12.7129C18.052 13.0229 17.333 13.3499 16.538 13.6729L16.537 13.6739Z" fill="#2B2B2B"/>
</svg>
